<svg width="300" height="74" viewBox="0 0 300 74" fill="none" xmlns="http://www.w3.org/2000/svg">
<path d="M81.524 73.2928L44.6713 73.2928L44.6713 57.0343H53.3728L49.1124 49.6526L63.188 41.5234L81.524 73.2928Z" fill="url(#paint0_linear_4_776)"/>
<path d="M59.2786 34.7499L40.762 2.66772L22.3357 34.5934L36.4114 42.7227L40.762 35.1846L45.203 42.8791L59.2786 34.7499Z" fill="url(#paint1_linear_4_776)"/>
<path d="M36.8525 73.2928L36.8525 57.0343H28.1512L32.502 49.4962L18.4263 41.3669L0 73.2928L36.8525 73.2928Z" fill="url(#paint2_linear_4_776)"/>
<path d="M96.9948 27.9606V2.89842H116.513V7.94883H103.526V13.0372H113.855V17.7838H103.526V22.9102H117.007V27.9606H96.9948Z" fill="white"/>
<path d="M120.495 27.9606V8.97411H126.267L126.457 12.6575C127.064 11.3158 127.912 10.3032 129.001 9.61965C130.115 8.93613 131.393 8.59437 132.836 8.59437C134.254 8.59437 135.481 8.91081 136.519 9.5437C137.557 10.1766 138.329 11.1133 138.836 12.3537C139.241 11.5183 139.76 10.8221 140.393 10.2652C141.051 9.70825 141.798 9.29055 142.633 9.01208C143.468 8.73361 144.329 8.59437 145.215 8.59437C146.481 8.59437 147.595 8.84753 148.557 9.35384C149.519 9.83483 150.278 10.5816 150.835 11.5942C151.417 12.5815 151.709 13.822 151.709 15.3156V27.9606H145.253V16.7965C145.253 15.5814 145.013 14.7333 144.532 14.2524C144.076 13.7714 143.456 13.5309 142.671 13.5309C142.038 13.5309 141.456 13.6954 140.924 14.0245C140.418 14.3283 140.026 14.7966 139.747 15.4295C139.469 16.0624 139.329 16.8598 139.329 17.8218V27.9606H132.874V16.7965C132.874 15.5814 132.633 14.7333 132.153 14.2524C131.672 13.7714 131.051 13.5309 130.292 13.5309C129.71 13.5309 129.153 13.6828 128.621 13.9865C128.115 14.2903 127.71 14.7713 127.406 15.4295C127.102 16.0624 126.95 16.8978 126.95 17.9357V27.9606H120.495Z" fill="white"/>
<path d="M176.031 2.89842V7.94883H167.866V27.9606H161.335V7.94883H153.133V2.89842H176.031Z" fill="white"/>
<path d="M185.051 28.3403C182.95 28.3403 181.127 27.9479 179.583 27.1632C178.064 26.3784 176.887 25.2519 176.051 23.7836C175.216 22.3153 174.798 20.5432 174.798 18.4674C174.798 16.3915 175.216 14.6194 176.051 13.1511C176.887 11.6828 178.051 10.5563 179.545 9.77154C181.064 8.98676 182.798 8.59437 184.747 8.59437C186.747 8.59437 188.443 8.98676 189.836 9.77154C191.253 10.531 192.329 11.5942 193.063 12.9613C193.797 14.303 194.164 15.8472 194.164 17.594C194.164 18.0497 194.152 18.5053 194.127 18.961C194.101 19.4167 194.063 19.7964 194.013 20.1002H178.975V16.6447H191.165L188.089 17.8218C188.089 16.3029 187.81 15.1384 187.253 14.3283C186.722 13.5182 185.886 13.1132 184.747 13.1132C183.937 13.1132 183.241 13.303 182.659 13.6828C182.102 14.0625 181.671 14.6574 181.368 15.4675C181.089 16.2776 180.95 17.3155 180.95 18.5813C180.95 19.8217 181.114 20.8343 181.444 21.6191C181.773 22.3786 182.241 22.9355 182.849 23.2899C183.456 23.619 184.19 23.7836 185.051 23.7836C186.013 23.7836 186.772 23.5937 187.329 23.214C187.912 22.8343 188.342 22.3026 188.62 21.6191L193.785 23.3279C193.43 24.4165 192.81 25.3405 191.924 26.0999C191.063 26.8341 190.025 27.391 188.81 27.7707C187.62 28.1505 186.367 28.3403 185.051 28.3403Z" fill="white"/>
<path d="M206.775 8.59437C208.699 8.59437 210.294 8.87284 211.56 9.42978C212.851 9.9614 213.851 10.6829 214.56 11.5942C215.294 12.4803 215.75 13.4423 215.927 14.4802L209.965 16.4548C209.788 15.3662 209.459 14.5561 208.978 14.0245C208.522 13.4676 207.851 13.1891 206.965 13.1891C206.155 13.1891 205.472 13.379 204.915 13.7587C204.383 14.1131 203.978 14.6954 203.7 15.5055C203.421 16.2902 203.282 17.3029 203.282 18.5433C203.282 19.7838 203.434 20.7964 203.738 21.5811C204.041 22.3406 204.472 22.8975 205.029 23.252C205.586 23.5811 206.244 23.7456 207.003 23.7456C207.636 23.7456 208.155 23.6317 208.56 23.4038C208.99 23.1507 209.345 22.7963 209.623 22.3406C209.902 21.8849 210.079 21.328 210.155 20.6698L215.965 22.5305C215.788 23.6443 215.307 24.6443 214.522 25.5303C213.762 26.3911 212.75 27.0746 211.484 27.5809C210.218 28.0872 208.737 28.3403 207.041 28.3403C204.965 28.3403 203.155 27.9606 201.611 27.2011C200.067 26.4164 198.877 25.2898 198.042 23.8215C197.206 22.3279 196.788 20.5432 196.788 18.4674C196.788 16.3915 197.206 14.6194 198.042 13.1511C198.877 11.6575 200.042 10.531 201.535 9.77154C203.054 8.98676 204.801 8.59437 206.775 8.59437Z" fill="white"/>
<path d="M219.321 27.9606V0.923828H225.776V12.4296C226.333 11.1639 227.131 10.2146 228.169 9.58167C229.207 8.92347 230.409 8.59437 231.776 8.59437C233.093 8.59437 234.232 8.84753 235.194 9.35384C236.181 9.86014 236.953 10.6069 237.51 11.5942C238.067 12.5815 238.346 13.822 238.346 15.3156V27.9606H231.89V17.1003C231.89 15.7333 231.637 14.7966 231.131 14.2903C230.65 13.7587 230.004 13.4929 229.194 13.4929C228.586 13.4929 228.017 13.6448 227.485 13.9486C226.954 14.2524 226.536 14.7333 226.232 15.3915C225.928 16.0497 225.776 16.9105 225.776 17.9737V27.9606H219.321Z" fill="white"/>
<path d="M101.969 63.6749C100.552 63.5737 99.2859 63.194 98.172 62.5358C97.0581 61.8776 96.1847 60.9789 95.5519 59.8397C94.919 58.7005 94.6025 57.3714 94.6025 55.8525C94.6025 53.3716 95.4 51.4476 96.9948 50.0806C98.5897 48.7136 100.881 48.0301 103.868 48.0301H112.792V52.8147H104.134C102.919 52.8147 101.995 53.1058 101.362 53.688C100.754 54.245 100.45 55.0044 100.45 55.9664C100.45 56.8271 100.754 57.574 101.362 58.2068C101.995 58.8144 102.83 59.1688 103.868 59.2701L101.969 63.6749ZM135.424 48.0301V73.0923H129.652V61.5864L129.841 53.8779H129.766L123.538 73.0923H118.298L112.108 53.8779H111.994L112.222 61.5864V73.0923H106.412V48.0301H115.716L119.627 60.789L121.07 66.1052H121.146L122.589 60.827L126.5 48.0301H135.424Z" fill="white"/>
<path d="M149.674 73.472C147.573 73.472 145.75 73.0796 144.206 72.2948C142.687 71.51 141.51 70.3835 140.674 68.9152C139.839 67.4469 139.421 65.6749 139.421 63.599C139.421 61.5231 139.839 59.7511 140.674 58.2828C141.51 56.8145 142.674 55.688 144.168 54.9032C145.687 54.1184 147.421 53.726 149.37 53.726C151.37 53.726 153.066 54.1184 154.458 54.9032C155.876 55.6626 156.952 56.7259 157.686 58.0929C158.42 59.4346 158.787 60.9789 158.787 62.7256C158.787 63.1813 158.775 63.637 158.749 64.0927C158.724 64.5483 158.686 64.9281 158.635 65.2318H143.598V61.7763H155.787L152.712 62.9535C152.712 61.4345 152.433 60.27 151.876 59.4599C151.345 58.6499 150.509 58.2448 149.37 58.2448C148.56 58.2448 147.864 58.4347 147.281 58.8144C146.725 59.1941 146.294 59.789 145.99 60.5991C145.712 61.4092 145.573 62.4472 145.573 63.7129C145.573 64.9534 145.737 65.966 146.066 66.7508C146.395 67.5102 146.864 68.0672 147.471 68.4216C148.079 68.7507 148.813 68.9152 149.674 68.9152C150.636 68.9152 151.395 68.7254 151.952 68.3456C152.534 67.9659 152.965 67.4343 153.243 66.7508L158.408 68.4595C158.053 69.5481 157.433 70.4721 156.547 71.2316C155.686 71.9657 154.648 72.5227 153.433 72.9024C152.243 73.2821 150.99 73.472 149.674 73.472Z" fill="white"/>
<path d="M170.112 48.068V66.3331C170.112 67.2444 170.328 67.9026 170.758 68.3077C171.214 68.6874 171.834 68.8773 172.619 68.8773C173.226 68.8773 173.745 68.814 174.176 68.6874C174.631 68.5355 175.036 68.3203 175.391 68.0418L176.074 72.029C175.441 72.4847 174.644 72.8391 173.682 73.0923C172.72 73.3454 171.733 73.472 170.72 73.472C169.277 73.472 168.024 73.2695 166.961 72.8644C165.923 72.4594 165.113 71.8138 164.53 70.9278C163.973 70.0418 163.682 68.8646 163.657 67.3963V49.8528L170.112 48.068ZM175.77 54.1058V58.7005H160.391V54.1058H175.77Z" fill="white"/>
<path d="M185.739 73.472C184.17 73.472 182.79 73.0923 181.6 72.3328C180.436 71.548 179.524 70.4215 178.866 68.9532C178.233 67.4849 177.917 65.7255 177.917 63.6749C177.917 61.5485 178.246 59.7511 178.904 58.2828C179.588 56.8145 180.524 55.688 181.714 54.9032C182.929 54.1184 184.322 53.726 185.891 53.726C187.613 53.726 189.03 54.2576 190.144 55.3209C191.283 56.3588 192.005 57.6879 192.309 59.3081L191.701 60.1055L192.081 54.1058H197.929V73.0923H191.967L191.701 66.6368L192.498 67.2064C192.347 68.4722 191.954 69.5734 191.321 70.5101C190.714 71.4468 189.929 72.1809 188.967 72.7125C188.03 73.2188 186.954 73.472 185.739 73.472ZM187.98 68.7254C188.714 68.7254 189.334 68.5355 189.84 68.1558C190.372 67.7507 190.777 67.1558 191.055 66.371C191.359 65.5863 191.511 64.6243 191.511 63.4851C191.511 62.4218 191.372 61.5231 191.093 60.789C190.815 60.0295 190.41 59.4599 189.878 59.0802C189.372 58.6752 188.752 58.4726 188.018 58.4726C186.904 58.4726 186.018 58.8903 185.359 59.7258C184.727 60.5358 184.41 61.8269 184.41 63.599C184.41 65.3711 184.727 66.6748 185.359 67.5102C185.992 68.3203 186.866 68.7254 187.98 68.7254Z" fill="white"/>
<path d="M214.901 54.1058H221.584L214.749 73.0923H207.04L200.205 54.1058H207.002L210.914 68.5735L214.901 54.1058Z" fill="white"/>
<path d="M232.777 73.472C230.676 73.472 228.853 73.0796 227.309 72.2948C225.79 71.51 224.613 70.3835 223.777 68.9152C222.942 67.4469 222.524 65.6749 222.524 63.599C222.524 61.5231 222.942 59.7511 223.777 58.2828C224.613 56.8145 225.777 55.688 227.271 54.9032C228.79 54.1184 230.524 53.726 232.473 53.726C234.473 53.726 236.169 54.1184 237.561 54.9032C238.979 55.6626 240.055 56.7259 240.789 58.0929C241.523 59.4346 241.89 60.9789 241.89 62.7256C241.89 63.1813 241.878 63.637 241.852 64.0927C241.827 64.5483 241.789 64.9281 241.738 65.2318H226.701V61.7763H238.89L235.815 62.9535C235.815 61.4345 235.536 60.27 234.979 59.4599C234.448 58.6499 233.612 58.2448 232.473 58.2448C231.663 58.2448 230.967 58.4347 230.385 58.8144C229.828 59.1941 229.397 59.789 229.093 60.5991C228.815 61.4092 228.676 62.4472 228.676 63.7129C228.676 64.9534 228.84 65.966 229.169 66.7508C229.498 67.5102 229.967 68.0672 230.574 68.4216C231.182 68.7507 231.916 68.9152 232.777 68.9152C233.739 68.9152 234.498 68.7254 235.055 68.3456C235.637 67.9659 236.068 67.4343 236.346 66.7508L241.511 68.4595C241.156 69.5481 240.536 70.4721 239.65 71.2316C238.789 71.9657 237.751 72.5227 236.536 72.9024C235.346 73.2821 234.093 73.472 232.777 73.472Z" fill="white"/>
<path d="M245.502 73.0923V54.1058H251.198L251.463 58.2068C251.944 56.7892 252.653 55.688 253.59 54.9032C254.552 54.1184 255.767 53.726 257.235 53.726C257.716 53.726 258.121 53.764 258.45 53.8399C258.805 53.9159 259.083 54.0172 259.286 54.1437L258.64 59.4599C258.387 59.3587 258.058 59.2827 257.653 59.2321C257.273 59.1562 256.805 59.1182 256.248 59.1182C255.489 59.1182 254.78 59.2827 254.121 59.6118C253.463 59.9409 252.932 60.4346 252.527 61.0928C252.147 61.7257 251.957 62.5358 251.957 63.5231V73.0923H245.502Z" fill="white"/>
<path d="M269.459 73.472C267.56 73.472 265.788 73.1682 264.143 72.5606C262.522 71.9277 261.181 71.0291 260.117 69.8645L263.155 66.2951C263.788 67.1052 264.623 67.7887 265.661 68.3456C266.725 68.8773 267.902 69.1431 269.193 69.1431C269.978 69.1431 270.623 69.0291 271.13 68.8013C271.636 68.5735 271.889 68.2191 271.889 67.7381C271.889 67.3836 271.762 67.1052 271.509 66.9027C271.256 66.6748 270.75 66.4849 269.99 66.3331L267.332 65.8014C264.953 65.3204 263.256 64.6116 262.244 63.6749C261.257 62.713 260.763 61.4599 260.763 59.9156C260.763 58.8777 261.079 57.8904 261.712 56.9537C262.345 55.9917 263.32 55.2196 264.636 54.6374C265.953 54.0298 267.636 53.726 269.687 53.726C271.611 53.726 273.307 54.0045 274.775 54.5614C276.243 55.1184 277.408 55.9285 278.268 56.9917L275.193 60.4852C274.585 59.7258 273.8 59.1308 272.838 58.7005C271.876 58.2701 270.914 58.0549 269.952 58.0549C269.345 58.0549 268.826 58.1182 268.395 58.2448C267.99 58.3461 267.687 58.498 267.484 58.7005C267.282 58.903 267.18 59.1562 267.18 59.4599C267.18 59.789 267.332 60.0802 267.636 60.3333C267.965 60.5612 268.56 60.7637 269.421 60.9409L272.876 61.6244C274.826 61.9788 276.231 62.6244 277.091 63.561C277.952 64.4977 278.382 65.6242 278.382 66.9406C278.382 68.1811 278.053 69.295 277.395 70.2823C276.737 71.2696 275.75 72.0543 274.433 72.6366C273.117 73.1935 271.459 73.472 269.459 73.472Z" fill="white"/>
<path d="M290.886 73.472C288.785 73.472 286.962 73.0796 285.418 72.2948C283.899 71.51 282.722 70.3835 281.886 68.9152C281.051 67.4469 280.633 65.6749 280.633 63.599C280.633 61.5231 281.051 59.7511 281.886 58.2828C282.722 56.8145 283.886 55.688 285.38 54.9032C286.899 54.1184 288.633 53.726 290.582 53.726C292.582 53.726 294.278 54.1184 295.67 54.9032C297.088 55.6626 298.164 56.7259 298.898 58.0929C299.632 59.4346 299.999 60.9789 299.999 62.7256C299.999 63.1813 299.987 63.637 299.961 64.0927C299.936 64.5483 299.898 64.9281 299.848 65.2318H284.81V61.7763H297L293.924 62.9535C293.924 61.4345 293.645 60.27 293.088 59.4599C292.557 58.6499 291.721 58.2448 290.582 58.2448C289.772 58.2448 289.076 58.4347 288.494 58.8144C287.937 59.1941 287.506 59.789 287.202 60.5991C286.924 61.4092 286.785 62.4472 286.785 63.7129C286.785 64.9534 286.949 65.966 287.278 66.7508C287.608 67.5102 288.076 68.0672 288.683 68.4216C289.291 68.7507 290.025 68.9152 290.886 68.9152C291.848 68.9152 292.607 68.7254 293.164 68.3456C293.747 67.9659 294.177 67.4343 294.455 66.7508L299.62 68.4595C299.265 69.5481 298.645 70.4721 297.759 71.2316C296.898 71.9657 295.86 72.5227 294.645 72.9024C293.455 73.2821 292.202 73.472 290.886 73.472Z" fill="white"/>
<defs>
<linearGradient id="paint0_linear_4_776" x1="40.762" y1="49.2314" x2="-83.4788" y2="153.36" gradientUnits="userSpaceOnUse">
<stop stop-color="#F6DBA8"/>
<stop offset="1" stop-color="#F6DBA8" stop-opacity="0"/>
</linearGradient>
<linearGradient id="paint1_linear_4_776" x1="40.762" y1="49.2314" x2="-83.4788" y2="153.36" gradientUnits="userSpaceOnUse">
<stop stop-color="#F6DBA8"/>
<stop offset="1" stop-color="#F6DBA8" stop-opacity="0"/>
</linearGradient>
<linearGradient id="paint2_linear_4_776" x1="40.762" y1="49.2314" x2="-83.4788" y2="153.36" gradientUnits="userSpaceOnUse">
<stop stop-color="#F6DBA8"/>
<stop offset="1" stop-color="#F6DBA8" stop-opacity="0"/>
</linearGradient>
</defs>
</svg>
