<svg width="170" height="147" viewBox="0 0 170 147" fill="none" xmlns="http://www.w3.org/2000/svg">
<path d="M123.671 67.4536L88.7086 67.4536L88.7086 52.0293H96.9636L92.9218 45.0263L106.275 37.3141L123.671 67.4536Z" fill="url(#paint0_linear_56_257)"/>
<path d="M102.566 30.8881L84.9999 0.451904L67.5189 30.7397L80.8724 38.4519L84.9999 31.3006L89.213 38.6003L102.566 30.8881Z" fill="url(#paint1_linear_56_257)"/>
<path d="M81.2909 67.4536L81.2909 52.0293H73.0361L77.1636 44.8779L63.8101 37.1657L46.3291 67.4536L81.2909 67.4536Z" fill="url(#paint2_linear_56_257)"/>
<path d="M6.09723 138.564C4.92388 138.48 3.87625 138.166 2.95433 137.621C2.03241 137.076 1.30954 136.332 0.785726 135.389C0.261909 134.447 0 133.347 0 132.089C0 130.036 0.66001 128.444 1.98003 127.312C3.30005 126.181 5.19627 125.615 7.66868 125.615H15.0545V129.575H7.88868C6.88296 129.575 6.11818 129.816 5.59437 130.298C5.0915 130.759 4.84007 131.387 4.84007 132.184C4.84007 132.896 5.0915 133.514 5.59437 134.038C6.11818 134.541 6.80962 134.834 7.66868 134.918L6.09723 138.564ZM33.7862 125.615V146.358H29.009V136.835L29.1661 130.455H29.1033L23.9489 146.358H19.6117L14.4888 130.455H14.3945L14.5831 136.835V146.358H9.77443V125.615H17.4745L20.7117 136.175L21.906 140.575H21.9689L23.1632 136.207L26.4004 125.615H33.7862Z" fill="white"/>
<path d="M45.5807 146.672C43.8416 146.672 42.333 146.348 41.0549 145.698C39.7977 145.049 38.8234 144.116 38.132 142.901C37.4406 141.686 37.0948 140.219 37.0948 138.501C37.0948 136.783 37.4406 135.316 38.132 134.101C38.8234 132.886 39.7873 131.953 41.0235 131.304C42.2806 130.654 43.7159 130.329 45.3293 130.329C46.9845 130.329 48.3883 130.654 49.5407 131.304C50.7141 131.932 51.6046 132.812 52.2122 133.944C52.8198 135.054 53.1236 136.332 53.1236 137.778C53.1236 138.155 53.1132 138.532 53.0922 138.909C53.0713 139.287 53.0398 139.601 52.9979 139.852H40.552V136.992H50.6408L48.095 137.967C48.095 136.709 47.8645 135.746 47.4036 135.075C46.9636 134.405 46.2721 134.069 45.3293 134.069C44.6588 134.069 44.0826 134.227 43.6006 134.541C43.1397 134.855 42.7835 135.348 42.5321 136.018C42.3016 136.688 42.1863 137.548 42.1863 138.595C42.1863 139.622 42.3225 140.46 42.5949 141.11C42.8673 141.738 43.2549 142.199 43.7578 142.492C44.2607 142.765 44.8683 142.901 45.5807 142.901C46.3769 142.901 47.0055 142.744 47.4664 142.43C47.9483 142.115 48.3045 141.675 48.535 141.11L52.8093 142.524C52.516 143.425 52.0027 144.19 51.2693 144.818C50.5569 145.426 49.6979 145.887 48.6922 146.201C47.7074 146.515 46.6702 146.672 45.5807 146.672Z" fill="white"/>
<path d="M62.4971 125.646V140.764C62.4971 141.518 62.6752 142.063 63.0314 142.398C63.4085 142.712 63.9219 142.87 64.5714 142.87C65.0743 142.87 65.5038 142.817 65.86 142.712C66.2372 142.587 66.5724 142.409 66.8657 142.178L67.4315 145.478C66.9076 145.855 66.2476 146.149 65.4514 146.358C64.6552 146.568 63.8381 146.672 63 146.672C61.8057 146.672 60.7685 146.505 59.8885 146.17C59.0294 145.834 58.359 145.3 57.877 144.567C57.4161 143.833 57.1751 142.859 57.1542 141.644V127.124L62.4971 125.646ZM67.18 130.644V134.447H54.4513V130.644H67.18Z" fill="white"/>
<path d="M75.4309 146.672C74.1318 146.672 72.9899 146.358 72.0051 145.73C71.0413 145.08 70.287 144.148 69.7422 142.932C69.2184 141.717 68.9565 140.261 68.9565 138.564C68.9565 136.804 69.2289 135.316 69.7737 134.101C70.3394 132.886 71.1146 131.953 72.0994 131.304C73.1051 130.654 74.2575 130.329 75.5566 130.329C76.9814 130.329 78.1547 130.769 79.0767 131.649C80.0195 132.508 80.6167 133.608 80.8681 134.949L80.3652 135.609L80.6795 130.644H85.5196V146.358H80.5852L80.3652 141.015L81.0252 141.487C80.8995 142.534 80.5748 143.446 80.051 144.221C79.5481 144.996 78.8986 145.604 78.1023 146.044C77.3271 146.463 76.4366 146.672 75.4309 146.672ZM77.2852 142.744C77.8928 142.744 78.4062 142.587 78.8252 142.272C79.2652 141.937 79.6005 141.445 79.8309 140.795C80.0824 140.146 80.2081 139.349 80.2081 138.407C80.2081 137.527 80.0929 136.783 79.8624 136.175C79.6319 135.547 79.2967 135.075 78.8567 134.761C78.4376 134.426 77.9243 134.258 77.3166 134.258C76.3947 134.258 75.6614 134.604 75.1166 135.295C74.5928 135.966 74.3309 137.034 74.3309 138.501C74.3309 139.968 74.5928 141.047 75.1166 141.738C75.6404 142.409 76.3633 142.744 77.2852 142.744Z" fill="white"/>
<path d="M99.5669 130.644H105.098L99.4412 146.358H93.0611L87.4039 130.644H93.0297L96.2669 142.618L99.5669 130.644Z" fill="white"/>
<path d="M114.362 146.672C112.623 146.672 111.115 146.348 109.837 145.698C108.579 145.049 107.605 144.116 106.914 142.901C106.222 141.686 105.877 140.219 105.877 138.501C105.877 136.783 106.222 135.316 106.914 134.101C107.605 132.886 108.569 131.953 109.805 131.304C111.062 130.654 112.498 130.329 114.111 130.329C115.766 130.329 117.17 130.654 118.322 131.304C119.496 131.932 120.386 132.812 120.994 133.944C121.602 135.054 121.905 136.332 121.905 137.778C121.905 138.155 121.895 138.532 121.874 138.909C121.853 139.287 121.822 139.601 121.78 139.852H109.334V136.992H119.422L116.877 137.967C116.877 136.709 116.646 135.746 116.185 135.075C115.745 134.405 115.054 134.069 114.111 134.069C113.44 134.069 112.864 134.227 112.382 134.541C111.921 134.855 111.565 135.348 111.314 136.018C111.083 136.688 110.968 137.548 110.968 138.595C110.968 139.622 111.104 140.46 111.377 141.11C111.649 141.738 112.037 142.199 112.539 142.492C113.042 142.765 113.65 142.901 114.362 142.901C115.159 142.901 115.787 142.744 116.248 142.43C116.73 142.115 117.086 141.675 117.317 141.11L121.591 142.524C121.298 143.425 120.784 144.19 120.051 144.818C119.339 145.426 118.48 145.887 117.474 146.201C116.489 146.515 115.452 146.672 114.362 146.672Z" fill="white"/>
<path d="M124.894 146.358V130.644H129.609L129.829 134.038C130.227 132.865 130.813 131.953 131.589 131.304C132.385 130.654 133.391 130.329 134.606 130.329C135.004 130.329 135.339 130.361 135.612 130.424C135.905 130.486 136.135 130.57 136.303 130.675L135.769 135.075C135.559 134.991 135.287 134.928 134.952 134.887C134.637 134.824 134.25 134.792 133.789 134.792C133.16 134.792 132.573 134.928 132.029 135.201C131.484 135.473 131.044 135.882 130.709 136.427C130.394 136.95 130.237 137.621 130.237 138.438V146.358H124.894Z" fill="white"/>
<path d="M144.723 146.672C143.151 146.672 141.685 146.421 140.323 145.918C138.982 145.394 137.871 144.651 136.991 143.687L139.506 140.732C140.029 141.403 140.721 141.969 141.58 142.43C142.46 142.87 143.434 143.09 144.503 143.09C145.152 143.09 145.687 142.995 146.106 142.807C146.525 142.618 146.734 142.325 146.734 141.927C146.734 141.633 146.629 141.403 146.42 141.235C146.21 141.047 145.791 140.889 145.163 140.764L142.963 140.324C140.993 139.926 139.589 139.339 138.751 138.564C137.934 137.768 137.526 136.73 137.526 135.452C137.526 134.593 137.787 133.776 138.311 133.001C138.835 132.205 139.642 131.566 140.731 131.084C141.821 130.581 143.214 130.329 144.911 130.329C146.504 130.329 147.908 130.56 149.123 131.021C150.338 131.482 151.302 132.152 152.014 133.032L149.469 135.924C148.966 135.295 148.316 134.803 147.52 134.447C146.724 134.09 145.928 133.912 145.131 133.912C144.629 133.912 144.199 133.965 143.843 134.069C143.508 134.153 143.256 134.279 143.088 134.447C142.921 134.614 142.837 134.824 142.837 135.075C142.837 135.348 142.963 135.588 143.214 135.798C143.487 135.987 143.979 136.154 144.691 136.301L147.551 136.867C149.165 137.16 150.328 137.694 151.04 138.469C151.752 139.245 152.109 140.177 152.109 141.267C152.109 142.293 151.836 143.215 151.291 144.032C150.747 144.85 149.93 145.499 148.84 145.981C147.75 146.442 146.378 146.672 144.723 146.672Z" fill="white"/>
<path d="M162.457 146.672C160.718 146.672 159.21 146.348 157.932 145.698C156.674 145.049 155.7 144.116 155.009 142.901C154.317 141.686 153.972 140.219 153.972 138.501C153.972 136.783 154.317 135.316 155.009 134.101C155.7 132.886 156.664 131.953 157.9 131.304C159.157 130.654 160.593 130.329 162.206 130.329C163.861 130.329 165.265 130.654 166.417 131.304C167.591 131.932 168.481 132.812 169.089 133.944C169.697 135.054 170 136.332 170 137.778C170 138.155 169.99 138.532 169.969 138.909C169.948 139.287 169.917 139.601 169.875 139.852H157.429V136.992H167.517L164.972 137.967C164.972 136.709 164.741 135.746 164.28 135.075C163.84 134.405 163.149 134.069 162.206 134.069C161.535 134.069 160.959 134.227 160.477 134.541C160.016 134.855 159.66 135.348 159.409 136.018C159.178 136.688 159.063 137.548 159.063 138.595C159.063 139.622 159.199 140.46 159.472 141.11C159.744 141.738 160.132 142.199 160.634 142.492C161.137 142.765 161.745 142.901 162.457 142.901C163.254 142.901 163.882 142.744 164.343 142.43C164.825 142.115 165.181 141.675 165.412 141.11L169.686 142.524C169.393 143.425 168.879 144.19 168.146 144.818C167.434 145.426 166.575 145.887 165.569 146.201C164.584 146.515 163.547 146.672 162.457 146.672Z" fill="white"/>
<path d="M26.5049 109.004V88.261H42.6594V92.4411H31.9107V96.6526H40.4594V100.581H31.9107V104.824H43.068V109.004H26.5049Z" fill="white"/>
<path d="M45.955 109.004V93.2897H50.7322L50.8894 96.3383C51.3922 95.2278 52.0942 94.3897 52.9951 93.824C53.917 93.2582 54.9752 92.9754 56.1695 92.9754C57.3428 92.9754 58.359 93.2373 59.2181 93.7611C60.0771 94.2849 60.7162 95.0602 61.1353 96.0868C61.4705 95.3954 61.9 94.8192 62.4238 94.3582C62.9686 93.8973 63.5867 93.5516 64.2781 93.3211C64.9696 93.0906 65.682 92.9754 66.4153 92.9754C67.463 92.9754 68.3849 93.1849 69.1811 93.604C69.9773 94.0021 70.6059 94.6202 71.0668 95.4583C71.5487 96.2754 71.7897 97.3021 71.7897 98.5383V109.004H66.4468V99.764C66.4468 98.7583 66.2477 98.0564 65.8496 97.6583C65.4725 97.2602 64.9591 97.0611 64.3096 97.0611C63.7858 97.0611 63.3039 97.1973 62.8638 97.4697C62.4448 97.7212 62.12 98.1088 61.8895 98.6326C61.6591 99.1564 61.5438 99.8164 61.5438 100.613V109.004H56.2009V99.764C56.2009 98.7583 56.0018 98.0564 55.6037 97.6583C55.2056 97.2602 54.6923 97.0611 54.0637 97.0611C53.5818 97.0611 53.1208 97.1869 52.6808 97.4383C52.2618 97.6897 51.9265 98.0878 51.6751 98.6326C51.4237 99.1564 51.298 99.8478 51.298 100.707V109.004H45.955Z" fill="white"/>
<path d="M91.9202 88.261V92.4411H85.163V109.004H79.7572V92.4411H72.9685V88.261H91.9202Z" fill="white"/>
<path d="M99.3861 109.318C97.647 109.318 96.1384 108.994 94.8603 108.344C93.6031 107.695 92.6288 106.762 91.9374 105.547C91.246 104.332 90.9002 102.865 90.9002 101.147C90.9002 99.4288 91.246 97.9621 91.9374 96.7469C92.6288 95.5316 93.5927 94.5992 94.8289 93.9497C96.086 93.3001 97.5213 92.9754 99.1347 92.9754C100.79 92.9754 102.194 93.3001 103.346 93.9497C104.519 94.5783 105.41 95.4583 106.018 96.5897C106.625 97.7002 106.929 98.9783 106.929 100.424C106.929 100.801 106.919 101.178 106.898 101.555C106.877 101.933 106.845 102.247 106.803 102.498H94.3574V99.6383H104.446L101.9 100.613C101.9 99.3555 101.67 98.3916 101.209 97.7212C100.769 97.0507 100.078 96.7154 99.1347 96.7154C98.4642 96.7154 97.888 96.8726 97.4061 97.1869C96.9451 97.5012 96.5889 97.9935 96.3375 98.664C96.107 99.3345 95.9917 100.194 95.9917 101.241C95.9917 102.268 96.1279 103.106 96.4003 103.756C96.6727 104.384 97.0603 104.845 97.5632 105.138C98.0661 105.411 98.6737 105.547 99.3861 105.547C100.182 105.547 100.811 105.39 101.272 105.076C101.754 104.761 102.11 104.321 102.34 103.756L106.615 105.17C106.321 106.071 105.808 106.836 105.075 107.464C104.362 108.072 103.503 108.533 102.498 108.847C101.513 109.161 100.476 109.318 99.3861 109.318Z" fill="white"/>
<path d="M117.367 92.9754C118.959 92.9754 120.279 93.2058 121.327 93.6668C122.395 94.1068 123.223 94.704 123.81 95.4583C124.417 96.1916 124.794 96.9878 124.941 97.8469L120.007 99.4812C119.86 98.5802 119.588 97.9097 119.19 97.4697C118.812 97.0088 118.257 96.7783 117.524 96.7783C116.853 96.7783 116.288 96.9354 115.827 97.2497C115.387 97.5431 115.051 98.025 114.821 98.6955C114.59 99.345 114.475 100.183 114.475 101.21C114.475 102.236 114.601 103.075 114.852 103.724C115.104 104.353 115.46 104.814 115.921 105.107C116.382 105.379 116.927 105.516 117.555 105.516C118.079 105.516 118.509 105.421 118.844 105.233C119.2 105.023 119.493 104.73 119.724 104.353C119.954 103.976 120.101 103.515 120.164 102.97L124.973 104.51C124.826 105.432 124.428 106.259 123.778 106.993C123.15 107.705 122.312 108.271 121.264 108.69C120.216 109.109 118.991 109.318 117.587 109.318C115.869 109.318 114.37 109.004 113.092 108.376C111.814 107.726 110.829 106.794 110.138 105.578C109.447 104.342 109.101 102.865 109.101 101.147C109.101 99.4288 109.447 97.9621 110.138 96.7469C110.829 95.5106 111.793 94.5783 113.029 93.9497C114.287 93.3001 115.732 92.9754 117.367 92.9754Z" fill="white"/>
<path d="M127.75 109.004V86.6267H133.093V96.1497C133.554 95.1021 134.214 94.3163 135.073 93.7925C135.932 93.2478 136.928 92.9754 138.059 92.9754C139.149 92.9754 140.091 93.1849 140.888 93.604C141.705 94.023 142.344 94.6411 142.805 95.4583C143.266 96.2754 143.496 97.3021 143.496 98.5383V109.004H138.153V100.015C138.153 98.884 137.944 98.1088 137.525 97.6897C137.127 97.2497 136.592 97.0297 135.922 97.0297C135.419 97.0297 134.948 97.1554 134.508 97.4069C134.068 97.6583 133.722 98.0564 133.47 98.6012C133.219 99.1459 133.093 99.8583 133.093 100.738V109.004H127.75Z" fill="white"/>
<defs>
<linearGradient id="paint0_linear_56_257" x1="84.9998" y1="44.6267" x2="-32.8669" y2="143.413" gradientUnits="userSpaceOnUse">
<stop stop-color="#F6DBA8"/>
<stop offset="1" stop-color="#F6DBA8" stop-opacity="0"/>
</linearGradient>
<linearGradient id="paint1_linear_56_257" x1="84.9998" y1="44.6267" x2="-32.8669" y2="143.413" gradientUnits="userSpaceOnUse">
<stop stop-color="#F6DBA8"/>
<stop offset="1" stop-color="#F6DBA8" stop-opacity="0"/>
</linearGradient>
<linearGradient id="paint2_linear_56_257" x1="84.9998" y1="44.6267" x2="-32.8669" y2="143.413" gradientUnits="userSpaceOnUse">
<stop stop-color="#F6DBA8"/>
<stop offset="1" stop-color="#F6DBA8" stop-opacity="0"/>
</linearGradient>
</defs>
</svg>
