<svg width="18" height="25" viewBox="0 0 18 25" fill="none" xmlns="http://www.w3.org/2000/svg">
<path d="M8.875 0.923828L8.781 0.954828L0.781 2.82983L0 3.01783V23.2678L0.813 23.3928L8.813 24.8928L8.906 24.9238H11V0.923828H8.875ZM13 2.92383V4.92383H16V20.9238H13V22.9238H18V2.92383H13ZM9 2.95483V22.9238L2 21.6108V4.58083L9 2.95483ZM7.344 11.9238C6.977 11.9238 6.656 12.3738 6.656 12.9238C6.656 13.4738 6.976 13.9238 7.344 13.9238C7.711 13.9238 8 13.4738 8 12.9238C8 12.3738 7.71 11.9238 7.344 11.9238Z" fill="black"/>
</svg>
